<svg width="32" height="32" viewBox="0 0 32 32" fill="none" xmlns="http://www.w3.org/2000/svg">
  <!-- Moon icon -->
  <path d="M16 2C16 2 8 6 8 16C8 24.8366 15.1634 32 24 32C24 32 32 28 32 18C32 9.16344 24.8366 2 16 2Z" fill="#FBBF24" stroke="#FBBF24" stroke-width="1"/>
  
  <!-- Music note icon centered inside moon -->
  <path d="M16 8C16 8 14 9 14 12V20C14 22.2091 15.7909 24 18 24C20.2091 24 22 22.2091 22 20C22 17.7909 20.2091 16 18 16C17.4477 16 16.9487 16.1054 16.5 16.2929V12C16.5 12 18.5 11 20.5 12" stroke="#FBBF24" stroke-width="1.5" fill="none" stroke-linecap="round" stroke-linejoin="round"/>
</svg>
